<svg width="111" height="19" viewBox="0 0 111 19" fill="none" xmlns="http://www.w3.org/2000/svg">
<path d="M0.924583 18V2.37333H5.33792V14.4267H9.31125V18H0.924583ZM16.4406 16.8133L16.3073 16.96C16.2184 17.0667 16.0806 17.1911 15.894 17.3333C15.7162 17.4756 15.5073 17.6178 15.2673 17.76C15.0362 17.9022 14.7517 18.0222 14.414 18.12C14.0762 18.2267 13.7295 18.28 13.374 18.28C10.974 18.28 9.77396 17.0933 9.77396 14.72C9.77396 14.2578 9.8584 13.8356 10.0273 13.4533C10.1962 13.0622 10.414 12.7333 10.6806 12.4667C10.9473 12.2 11.2673 11.9644 11.6406 11.76C12.014 11.5467 12.3873 11.3822 12.7606 11.2667C13.1428 11.1422 13.5428 11.04 13.9606 10.96C14.3784 10.88 14.7517 10.8267 15.0806 10.8C15.4095 10.7733 15.7251 10.76 16.0273 10.76V10.52C16.0273 9.97778 15.8806 9.59556 15.5873 9.37333C15.3028 9.15111 14.8406 9.04 14.2006 9.04C13.6495 9.04 13.0762 9.10667 12.4806 9.24C11.8851 9.36444 11.4184 9.51556 11.0806 9.69333L10.2273 7.88C10.8317 7.48889 11.6184 7.14667 12.5873 6.85333C13.5562 6.55111 14.5428 6.4 15.5473 6.4C16.4362 6.4 17.1695 6.48889 17.7473 6.66667C18.3251 6.83556 18.7917 7.12889 19.1473 7.54667C19.5117 7.95556 19.7695 8.48 19.9206 9.12C20.0717 9.75111 20.1473 10.5556 20.1473 11.5333V16.96L20.5206 18H16.8673L16.4406 16.8133ZM15.3873 15.9333C15.5028 15.9333 15.6095 15.9111 15.7073 15.8667C15.814 15.8133 15.894 15.7644 15.9473 15.72C16.0006 15.6667 16.0273 15.64 16.0273 15.64V12.44C15.4851 12.44 15.054 12.5911 14.734 12.8933C14.414 13.1867 14.254 13.6444 14.254 14.2667C14.254 15.3778 14.6317 15.9333 15.3873 15.9333ZM26.1592 18H21.8525V9.37333L21.0525 8.88V7.45333L23.9192 6.66667H26.1858V8.38667L26.3458 8.18667C26.4525 8.04444 26.6081 7.87556 26.8125 7.68C27.0258 7.48444 27.2614 7.29333 27.5192 7.10667C27.7769 6.91111 28.0836 6.74667 28.4392 6.61333C28.8036 6.47111 29.1592 6.4 29.5058 6.4C30.7236 6.4 31.5814 6.73333 32.0792 7.4C32.5858 8.06667 32.8392 9.18222 32.8392 10.7467C32.8392 10.8 32.8392 10.88 32.8392 10.9867C32.8303 11.0933 32.8258 11.1778 32.8258 11.24V18H28.4258V10.8533C28.4525 10.0178 28.0969 9.6 27.3592 9.6C27.3058 9.6 27.2525 9.60444 27.1992 9.61333C27.1547 9.62222 27.1103 9.63111 27.0658 9.64C27.0303 9.64889 26.9858 9.66667 26.9325 9.69333C26.8881 9.71111 26.8481 9.72889 26.8125 9.74667C26.7769 9.75556 26.7369 9.77778 26.6925 9.81333C26.6481 9.84 26.6125 9.86222 26.5858 9.88C26.5592 9.89778 26.5192 9.92889 26.4658 9.97333C26.4214 10.0089 26.3858 10.0356 26.3592 10.0533C26.3414 10.0711 26.3058 10.1022 26.2525 10.1467C26.2081 10.1822 26.1769 10.2089 26.1592 10.2267V18ZM41.9621 18L41.4421 16.28C41.371 16.4044 41.2865 16.5289 41.1888 16.6533C41.0999 16.7778 40.9532 16.9378 40.7487 17.1333C40.5443 17.32 40.3265 17.4844 40.0954 17.6267C39.8643 17.7689 39.5754 17.8933 39.2287 18C38.8821 18.1067 38.5176 18.16 38.1354 18.16C36.6688 18.16 35.5932 17.6578 34.9087 16.6533C34.2243 15.6489 33.8821 14.2533 33.8821 12.4667C33.8821 11.3467 34.0421 10.3511 34.3621 9.48C34.6821 8.6 35.1843 7.89333 35.8687 7.36C36.5532 6.82667 37.3799 6.56 38.3488 6.56C38.9265 6.56 39.4421 6.62222 39.8954 6.74667C40.3487 6.87111 40.7399 7.02222 41.0687 7.2V3.16L39.6021 2.66667V1.2L44.3221 0.533333H45.3621V18H41.9621ZM40.0821 15.5467C40.2421 15.5467 40.4065 15.52 40.5754 15.4667C40.7443 15.4044 40.9087 15.32 41.0687 15.2133V8.50667C40.7932 8.44444 40.5399 8.41333 40.3088 8.41333C39.1265 8.42222 38.531 9.33333 38.5221 11.1467V13.0133C38.5221 13.8489 38.6687 14.48 38.9621 14.9067C39.2554 15.3333 39.6287 15.5467 40.0821 15.5467ZM51.2583 18H47.0183V3.62667L46.365 2.37333H51.2717L53.725 7.44L56.0717 12.4933L55.4183 6.56V2.37333H59.6717V18H55.605L52.4317 11.8267L50.4717 7.96L51.2583 13.08V18ZM67.3781 16.8133L67.2448 16.96C67.1559 17.0667 67.0181 17.1911 66.8315 17.3333C66.6537 17.4756 66.4448 17.6178 66.2048 17.76C65.9737 17.9022 65.6892 18.0222 65.3515 18.12C65.0137 18.2267 64.667 18.28 64.3115 18.28C61.9115 18.28 60.7115 17.0933 60.7115 14.72C60.7115 14.2578 60.7959 13.8356 60.9648 13.4533C61.1337 13.0622 61.3515 12.7333 61.6181 12.4667C61.8848 12.2 62.2048 11.9644 62.5781 11.76C62.9515 11.5467 63.3248 11.3822 63.6981 11.2667C64.0803 11.1422 64.4803 11.04 64.8981 10.96C65.3159 10.88 65.6892 10.8267 66.0181 10.8C66.347 10.7733 66.6626 10.76 66.9648 10.76V10.52C66.9648 9.97778 66.8181 9.59556 66.5248 9.37333C66.2403 9.15111 65.7781 9.04 65.1381 9.04C64.587 9.04 64.0137 9.10667 63.4181 9.24C62.8226 9.36444 62.3559 9.51556 62.0181 9.69333L61.1648 7.88C61.7692 7.48889 62.5559 7.14667 63.5248 6.85333C64.4937 6.55111 65.4803 6.4 66.4848 6.4C67.3737 6.4 68.107 6.48889 68.6848 6.66667C69.2626 6.83556 69.7292 7.12889 70.0848 7.54667C70.4492 7.95556 70.707 8.48 70.8581 9.12C71.0092 9.75111 71.0848 10.5556 71.0848 11.5333V16.96L71.4581 18H67.8048L67.3781 16.8133ZM66.3248 15.9333C66.4403 15.9333 66.547 15.9111 66.6448 15.8667C66.7515 15.8133 66.8315 15.7644 66.8848 15.72C66.9381 15.6667 66.9648 15.64 66.9648 15.64V12.44C66.4226 12.44 65.9915 12.5911 65.6715 12.8933C65.3515 13.1867 65.1915 13.6444 65.1915 14.2667C65.1915 15.3778 65.5692 15.9333 66.3248 15.9333ZM75.91 18.28C74.71 18.28 73.87 17.92 73.39 17.2C72.9189 16.48 72.6833 15.2622 72.6833 13.5467V9.01333H71.7633V7.16L73.3367 6.66667L74.6967 3.56H77.0433V6.66667H79.23V9.01333H77.0033V13.9733C77.0033 14.6844 77.1056 15.1556 77.31 15.3867C77.5144 15.6178 77.83 15.7333 78.2567 15.7333C78.4433 15.7333 78.6122 15.7111 78.7633 15.6667C78.9144 15.6222 79.0389 15.56 79.1367 15.48V17.2933C79.0033 17.4267 78.83 17.56 78.6167 17.6933C78.4033 17.8178 78.0478 17.9467 77.55 18.08C77.0611 18.2133 76.5144 18.28 75.91 18.28ZM80.4072 18V9.37333L79.6072 8.88V7.45333L82.4739 6.66667H84.7005V18H80.4072ZM82.3405 5.44L80.1539 3.24V2.77333L82.3405 0.586666H82.8472L85.1272 2.77333V3.24L82.8472 5.44H82.3405ZM91.9 16.68C92.2911 16.68 92.5889 16.52 92.7933 16.2C93.0067 15.8711 93.1133 15.4222 93.1133 14.8533V10.64C93.1133 8.90667 92.7044 8.04 91.8867 8.04C91.5044 8.04 91.2067 8.19556 90.9933 8.50667C90.78 8.81778 90.6733 9.25778 90.6733 9.82667V14.16C90.6733 15.84 91.0822 16.68 91.9 16.68ZM91.7933 18.28C89.7578 18.28 88.2689 17.8178 87.3267 16.8933C86.3844 15.9689 85.9133 14.4933 85.9133 12.4667C85.9133 10.4578 86.3889 8.94667 87.34 7.93333C88.2911 6.91111 89.8378 6.4 91.98 6.4C94.0689 6.4 95.5756 6.88889 96.5 7.86667C97.4333 8.83556 97.9 10.3067 97.9 12.28C97.9 14.3244 97.4067 15.8356 96.42 16.8133C95.4422 17.7911 93.9 18.28 91.7933 18.28ZM103.659 18H99.3525V9.37333L98.5525 8.88V7.45333L101.419 6.66667H103.686V8.38667L103.846 8.18667C103.952 8.04444 104.108 7.87556 104.312 7.68C104.526 7.48444 104.761 7.29333 105.019 7.10667C105.277 6.91111 105.584 6.74667 105.939 6.61333C106.304 6.47111 106.659 6.4 107.006 6.4C108.224 6.4 109.081 6.73333 109.579 7.4C110.086 8.06667 110.339 9.18222 110.339 10.7467C110.339 10.8 110.339 10.88 110.339 10.9867C110.33 11.0933 110.326 11.1778 110.326 11.24V18H105.926V10.8533C105.953 10.0178 105.597 9.6 104.859 9.6C104.806 9.6 104.752 9.60444 104.699 9.61333C104.655 9.62222 104.61 9.63111 104.566 9.64C104.53 9.64889 104.486 9.66667 104.432 9.69333C104.388 9.71111 104.348 9.72889 104.312 9.74667C104.277 9.75556 104.237 9.77778 104.192 9.81333C104.148 9.84 104.113 9.86222 104.086 9.88C104.059 9.89778 104.019 9.92889 103.966 9.97333C103.921 10.0089 103.886 10.0356 103.859 10.0533C103.841 10.0711 103.806 10.1022 103.752 10.1467C103.708 10.1822 103.677 10.2089 103.659 10.2267V18Z" fill="black"/>
</svg>
